name C:\Users\Nicos\Desktop\Gil_twoSteps\Study2\ExperimentalData\IK_Splined\Splined_80_meshInts_p02_maxVel_01.mot
datacolumns 38
datarows 7
range 0.16941772 0.17405902
endheader
                time	         pelvis_tilt	         pelvis_list	     pelvis_rotation	           pelvis_tx	           pelvis_ty	           pelvis_tz	       hip_flexion_r	     hip_adduction_r	      hip_rotation_r	        knee_angle_r	       ankle_angle_r	    subtalar_angle_r	         mtp_angle_r	       hip_flexion_l	     hip_adduction_l	      hip_rotation_l	        knee_angle_l	       ankle_angle_l	    subtalar_angle_l	         mtp_angle_l	    lumbar_extension	      lumbar_bending	     lumbar_rotation	          arm_flex_r	           arm_add_r	           arm_rot_r	        elbow_flex_r	           pro_sup_r	        wrist_flex_r	         wrist_dev_r	          arm_flex_l	           arm_add_l	           arm_rot_l	        elbow_flex_l	           pro_sup_l	        wrist_flex_l	         wrist_dev_l	
          0.16941772	         -6.18423209	          8.49590385	          0.59297619	         -0.72499128	          0.97005579	          0.30626952	        -22.02290839	         -8.01774915	         -4.36380829	        -28.66819684	        -39.13685691	        -10.77858267	         -0.81533518	         85.45347744	          8.87717394	         -4.80291270	        -86.16247609	         -4.12970510	        -11.10978173	          6.32683656	          1.19152083	        -15.29879726	         -1.62697327	         48.43131054	         -8.67968943	         34.50348749	        139.27409480	         61.41780545	        -17.96615075	         14.96662559	        -82.69948594	          0.08644898	        -50.19622383	         63.28992160	         65.85843498	          7.02763246	         23.49366018	
          0.16985186	         -6.22293505	          8.46311484	          0.68908083	         -0.72075922	          0.97027532	          0.30624452	        -22.00240270	         -7.92713660	         -4.35525027	        -28.90585116	        -39.12739158	        -10.47993896	         -0.79496455	         85.36176013	          8.95425051	         -4.68032301	        -85.62253906	         -4.16901268	        -11.10611900	          6.27355430	          1.21044466	        -15.29821087	         -1.68412579	         48.43247540	         -8.72406481	         34.47111903	        139.48915345	         61.40259947	        -17.98677944	         14.97022582	        -82.65499450	          0.13154229	        -50.30979092	         63.33571280	         65.74583811	          7.04334114	         23.49690297	
          0.17122358	         -6.33256297	          8.35852126	          0.97597079	         -0.70742019	          0.97099392	          0.30618742	        -21.92286299	         -7.64750002	         -4.32841854	        -29.69881569	        -39.04216963	         -9.55577995	         -0.69631371	         85.03576396	          9.17982490	         -4.28997342	        -83.90205559	         -4.29579861	        -11.07285751	          6.11287557	          1.25035380	        -15.29718484	         -1.85058807	         48.40858804	         -8.86925763	         34.35710071	        140.16243143	         61.34841799	        -18.04742531	         14.98177299	        -82.48739999	          0.26456722	        -50.65990284	         63.47529886	         65.39663740	          7.09143335	         23.50585696	
          0.17221772	         -6.40004598	          8.28246646	          1.16872058	         -0.69778147	          0.97153727	          0.30616510	        -21.85195181	         -7.45227491	         -4.31210292	        -30.31248463	        -38.93432002	         -8.91118881	         -0.59734693	         84.76561397	          9.32723100	         -4.00453108	        -82.64176672	         -4.39009981	        -11.02859322	          6.00401659	          1.26061034	        -15.29785563	         -1.95812346	         48.36493017	         -8.98015096	         34.26509805	        140.64447526	         61.30205328	        -18.08729390	         14.99027010	        -82.34101356	          0.35166348	        -50.90527565	         63.57245224	         65.14970766	          7.12505383	         23.51122092	
          0.17225316	         -6.40226684	          8.27975998	          1.17536694	         -0.69743824	          0.97155697	          0.30616458	        -21.84922778	         -7.44544461	         -4.31160812	        -30.33495452	        -38.92984604	         -8.88868826	         -0.59345999	         84.75546356	          9.33224965	         -3.99431930	        -82.59663301	         -4.39349857	        -11.02670851	          6.00025737	          1.26068923	        -15.29790958	         -1.96175794	         48.36296289	         -8.98420472	         34.26169639	        140.66156900	         61.30027359	        -18.08865490	         14.99057454	        -82.33541781	          0.35461982	        -50.91389250	         63.57586491	         65.14099853	          7.12623635	         23.51139605	
          0.17268731	         -6.42843966	          8.24665632	          1.25555200	         -0.69323630	          0.97180015	          0.30615963	        -21.81480183	         -7.36253936	         -4.30613773	        -30.61344104	        -38.87183931	         -8.61606209	         -0.54407358	         84.62825896	          9.39244026	         -3.86904586	        -82.04268775	         -4.43532943	        -11.00194384	          5.95490133	          1.26006497	        -15.29875522	         -2.00517852	         48.33657131	         -9.03445757	         34.21943092	        140.87042740	         61.27772051	        -18.10500074	         14.99430928	        -82.26480895	          0.38999321	        -51.01870270	         63.61742716	         65.03484176	          7.14064078	         23.51345596	
          0.17405902	         -6.49866581	          8.14287056	          1.49451186	         -0.67998519	          0.97258941	          0.30616067	        -21.69371364	         -7.11022142	         -4.29743897	        -31.53200691	        -38.65446409	         -7.79548874	         -0.36993397	         84.19191137	          9.56759225	         -3.47100750	        -80.27956094	         -4.56980275	        -10.90391824	          5.82012173	          1.23895542	        -15.30385596	         -2.12928104	         48.22538054	         -9.20106230	         34.07985535	        141.52376940	         61.19669064	        -18.15290108	         15.00612990	        -82.01723867	          0.49150195	        -51.34080626	         63.74658144	         64.70566770	          7.18532337	         23.51900349	
